<?xml version="1.0" encoding="UTF-8" standalone="no"?>
<!-- Created with Inkscape (http://www.inkscape.org/) -->

<svg
   version="1.1"
   id="svg6526"
   width="34.718296"
   height="17.324036"
   viewBox="0 0 34.718296 17.324035"
   sodipodi:docname="pictogrammes_compliques.svg"
   xmlns:inkscape="http://www.inkscape.org/namespaces/inkscape"
   xmlns:sodipodi="http://sodipodi.sourceforge.net/DTD/sodipodi-0.dtd"
   xmlns="http://www.w3.org/2000/svg"
   xmlns:svg="http://www.w3.org/2000/svg">
  <defs
     id="defs6530" />
  <sodipodi:namedview
     id="namedview6528"
     pagecolor="#ffffff"
     bordercolor="#000000"
     borderopacity="0.25"
     inkscape:showpageshadow="2"
     inkscape:pageopacity="0.0"
     inkscape:pagecheckerboard="0"
     inkscape:deskcolor="#d1d1d1"
     showgrid="false"
     inkscape:zoom="4.8941065"
     inkscape:cx="93.786271"
     inkscape:cy="357.06211"
     inkscape:window-width="1920"
     inkscape:window-height="945"
     inkscape:window-x="0"
     inkscape:window-y="32"
     inkscape:window-maximized="1"
     inkscape:current-layer="g6534" />
  <g
     id="g6534"
     inkscape:groupmode="layer"
     inkscape:label="Page 1"
     transform="matrix(1.3333333,0,0,-1.3333333,-16.826365,120.16216)">
    <g
       id="g6778"
       transform="translate(23.3236,89.6812)">
      <path
         d="M 0,0 -0.798,-5.789 0,-6.485 l -0.87,-4.836 -1.977,0.037 -1.309,-0.77 h -2.105 l -1.309,0.77 -1.977,-0.037 -0.87,4.836 0.798,0.696 L -10.417,0 Z"
         style="fill:#3273ae;fill-opacity:1;fill-rule:nonzero;stroke:none"
         id="path6780" />
    </g>
    <g
       id="g6782"
       transform="translate(23.3236,89.6812)">
      <path
         d="M 0,0 -0.798,-5.789 0,-6.485 l -0.87,-4.836 -1.977,0.037 -1.309,-0.77 h -2.105 l -1.309,0.77 -1.977,-0.037 -0.87,4.836 0.798,0.696 L -10.417,0 Z"
         style="fill:none;stroke:#231f20;stroke-width:0.5;stroke-linecap:butt;stroke-linejoin:miter;stroke-miterlimit:10;stroke-dasharray:none;stroke-opacity:1"
         id="path6784" />
    </g>
    <g
       id="g6786"
       transform="translate(31.8276,89.8126)">
      <path
         d="M 0,0 6.537,-4.75 4.04,-12.434 h -8.08 l -2.497,7.684 z"
         style="fill:#3273ae;fill-opacity:1;fill-rule:nonzero;stroke:none"
         id="path6788" />
    </g>
    <g
       id="g6790"
       transform="translate(31.8276,89.8126)">
      <path
         d="M 0,0 6.537,-4.75 4.04,-12.434 h -8.08 l -2.497,7.684 z"
         style="fill:none;stroke:#231f20;stroke-width:0.5;stroke-linecap:butt;stroke-linejoin:miter;stroke-miterlimit:10;stroke-dasharray:none;stroke-opacity:1"
         id="path6792"
         inkscape:export-filename="maritimes.svg"
         inkscape:export-xdpi="96"
         inkscape:export-ydpi="96" />
    </g>
  </g>
</svg>
