<?xml version="1.0" encoding="UTF-8"?>
<!-- Created with Inkscape (http://www.inkscape.org/) -->
<svg width="9.1862mm" height="4.7804mm" version="1.1" viewBox="0 0 9.1862 4.7804" xmlns="http://www.w3.org/2000/svg">
 <defs>
  <clipPath id="clipPath364">
   <path d="m0 0h283.46v320.32h-283.46z"/>
  </clipPath>
  <clipPath id="clipPath400">
   <path d="m0 0h283.46v320.32h-283.46z"/>
  </clipPath>
 </defs>
 <g transform="translate(-335.66 -58.464)">
  <path transform="matrix(.35278 0 0 -.35278 331.01 144.31)" d="m13.994 236.2-0.518-4.815c-0.063-0.588 0.398-1.101 0.989-1.101h9.131c0.591 0 1.052 0.513 0.989 1.101l-0.518 4.815c-0.032 0.297 0.072 0.593 0.282 0.805l0.011 0.012c0.217 0.219 0.32 0.527 0.279 0.832l-0.514 3.813c-0.067 0.493-0.488 0.862-0.986 0.862h-1.846c-0.263 0-0.516 0.104-0.703 0.291-0.186 0.186-0.439 0.291-0.703 0.291h-1.713c-0.264 0-0.517-0.105-0.703-0.291-0.187-0.187-0.439-0.291-0.703-0.291h-1.846c-0.498 0-0.919-0.369-0.986-0.862l-0.513-3.813c-0.042-0.305 0.061-0.613 0.278-0.832l0.011-0.012c0.211-0.212 0.314-0.508 0.282-0.805" clip-path="url(#clipPath364)" fill="#d91e2a"/>
  <path transform="matrix(.35278 0 0 -.35278 331.01 144.31)" d="m13.994 236.2-0.518-4.815c-0.063-0.588 0.398-1.101 0.989-1.101h9.131c0.591 0 1.052 0.513 0.989 1.101l-0.518 4.815c-0.032 0.297 0.072 0.593 0.282 0.805l0.011 0.012c0.217 0.219 0.32 0.527 0.279 0.832l-0.514 3.813c-0.067 0.493-0.488 0.862-0.986 0.862h-1.846c-0.263 0-0.516 0.104-0.703 0.291-0.186 0.186-0.439 0.291-0.703 0.291h-1.713c-0.264 0-0.517-0.105-0.703-0.291-0.187-0.187-0.439-0.291-0.703-0.291h-1.846c-0.498 0-0.919-0.369-0.986-0.862l-0.513-3.813c-0.042-0.305 0.061-0.613 0.278-0.832l0.011-0.012c0.211-0.212 0.314-0.508 0.282-0.805z" clip-path="url(#clipPath400)" fill="none" stroke="#231f20" stroke-width=".5"/>
  <g transform="matrix(.35278 0 0 -.35278 343.45 58.692)">
   <path d="m0 0h-5.242l-3.707-3.707v-5.242l3.707-3.706h5.242l3.707 3.706v5.242z" fill="#d91e2a"/>
   <path d="m0 0h-5.242l-3.707-3.707v-5.242l3.707-3.706h5.242l3.707 3.706v5.242z" fill="none" stroke="#231f20" stroke-width=".5"/>
  </g>
 </g>
</svg>
