<?xml version="1.0" encoding="UTF-8" standalone="no"?>
<!-- Created with Inkscape (http://www.inkscape.org/) -->

<svg
   version="1.1"
   id="svg6526"
   width="37.379066"
   height="18.147999"
   viewBox="0 0 37.379067 18.147999"
   sodipodi:docname="pictogrammes.svg"
   xmlns:inkscape="http://www.inkscape.org/namespaces/inkscape"
   xmlns:sodipodi="http://sodipodi.sourceforge.net/DTD/sodipodi-0.dtd"
   xmlns="http://www.w3.org/2000/svg"
   xmlns:svg="http://www.w3.org/2000/svg">
  <defs
     id="defs6530">
    <clipPath
       clipPathUnits="userSpaceOnUse"
       id="clipPath6800">
      <path
         d="M 0,0 H 283.465 V 320.315 H 0 Z"
         id="path6798" />
    </clipPath>
  </defs>
  <sodipodi:namedview
     id="namedview6528"
     pagecolor="#ffffff"
     bordercolor="#000000"
     borderopacity="0.25"
     inkscape:showpageshadow="2"
     inkscape:pageopacity="0.0"
     inkscape:pagecheckerboard="0"
     inkscape:deskcolor="#d1d1d1"
     showgrid="false"
     inkscape:zoom="4.8941065"
     inkscape:cx="93.786271"
     inkscape:cy="357.06211"
     inkscape:window-width="1920"
     inkscape:window-height="945"
     inkscape:window-x="0"
     inkscape:window-y="32"
     inkscape:window-maximized="1"
     inkscape:current-layer="g6534" />
  <g
     id="g6534"
     inkscape:groupmode="layer"
     inkscape:label="Page 1"
     transform="matrix(1.3333333,0,0,-1.3333333,-15.660933,353.41132)">
    <g
       id="g6794">
      <g
         id="g6796"
         clip-path="url(#clipPath6800)">
        <g
           id="g6802"
           transform="translate(18.5737,251.6975)">
          <path
             d="m 0,0 c 3.633,0 6.578,2.935 6.578,6.555 0,3.621 -2.945,6.556 -6.578,6.556 -3.633,0 -6.578,-2.935 -6.578,-6.556 C -6.578,2.935 -3.633,0 0,0"
             style="fill:#f9a70d;fill-opacity:1;fill-rule:nonzero;stroke:none"
             id="path6804" />
        </g>
        <g
           id="g6806"
           transform="translate(18.5737,251.6975)">
          <path
             d="m 0,0 c 3.633,0 6.578,2.935 6.578,6.555 0,3.621 -2.945,6.556 -6.578,6.556 -3.633,0 -6.578,-2.935 -6.578,-6.556 C -6.578,2.935 -3.633,0 0,0 Z"
             style="fill:none;stroke:#231f20;stroke-width:0.5;stroke-linecap:butt;stroke-linejoin:miter;stroke-miterlimit:4;stroke-dasharray:none;stroke-opacity:1"
             id="path6808" />
        </g>
      </g>
    </g>
    <path
       d="M 27.203,251.856 H 39.53 v 12.493 H 27.203 Z"
       style="fill:#5e5b5c;fill-opacity:1;fill-rule:nonzero;stroke:none"
       id="path6810" />
    <path
       d="M 27.203,251.856 H 39.53 v 12.493 H 27.203 Z"
       style="fill:none;stroke:#231f20;stroke-width:0.5;stroke-linecap:butt;stroke-linejoin:miter;stroke-miterlimit:4;stroke-dasharray:none;stroke-opacity:1"
       id="path6812" />
  </g>
</svg>
